<svg xmlns="http://www.w3.org/2000/svg" xmlns:xlink="http://www.w3.org/1999/xlink" width="2.34mm" height="10.83mm" viewBox="0 0 6.63 30.69">
  <defs>
    <linearGradient id="linear-gradient" x1="-107.05" y1="-37.21" x2="-107.05" y2="-39.2" gradientTransform="translate(41.52 -91.71) rotate(-90)" gradientUnits="userSpaceOnUse">
      <stop offset="0.15" stop-color="#757575"/>
      <stop offset="0.21" stop-color="#909090"/>
      <stop offset="0.34" stop-color="#c6c6c6"/>
      <stop offset="0.43" stop-color="#e8e8e8"/>
      <stop offset="0.48" stop-color="#f5f5f5"/>
      <stop offset="0.56" stop-color="#dedede"/>
      <stop offset="0.72" stop-color="#a3a3a3"/>
      <stop offset="0.83" stop-color="#757575"/>
    </linearGradient>
    <linearGradient id="linear-gradient-2" x1="-107.05" y1="-34.89" x2="-107.05" y2="-41.52" gradientTransform="translate(41.52 -91.71) rotate(-90)" gradientUnits="userSpaceOnUse">
      <stop offset="0" stop-color="#999"/>
      <stop offset="0.03" stop-color="#a3a3a3"/>
      <stop offset="0.16" stop-color="#c6c6c6"/>
      <stop offset="0.28" stop-color="#e0e0e0"/>
      <stop offset="0.4" stop-color="#f0f0f0"/>
      <stop offset="0.48" stop-color="#f5f5f5"/>
      <stop offset="0.57" stop-color="#eee"/>
      <stop offset="0.71" stop-color="#d9d9d9"/>
      <stop offset="0.87" stop-color="#b8b8b8"/>
      <stop offset="1" stop-color="#999"/>
    </linearGradient>
    <radialGradient id="Gold_Radial" data-name="Gold Radial" cx="3.32" cy="9.57" r="2.39" gradientTransform="translate(0 -2.75) scale(1 1.27)" gradientUnits="userSpaceOnUse">
      <stop offset="0" stop-color="#fffbcc"/>
      <stop offset="0.11" stop-color="#fbf2bb"/>
      <stop offset="0.34" stop-color="#f0d98e"/>
      <stop offset="0.37" stop-color="#eed688"/>
      <stop offset="0.69" stop-color="#ebbb10"/>
      <stop offset="1" stop-color="#c3922e"/>
    </radialGradient>
  </defs>
  <title>Resistor</title>
  <g style="isolation: isolate">
    <g id="Layer_1" data-name="Layer 1">
      <g>
        <g>
          <rect x="2.32" width="1.98" height="30.69" style="fill: url(#linear-gradient)"/>
          <path d="M0,7.11v4.1c0,.45.62,1.3.62,1.41v5.45c0,.11-.62,1-.62,1.41v4.1a1.48,1.48,0,0,0,1.59,1.34H5a1.48,1.48,0,0,0,1.59-1.34v-4.1c0-.45-.62-1.3-.62-1.41V12.62c0-.11.62-1,.62-1.41V7.11A1.48,1.48,0,0,0,5,5.76H1.59A1.48,1.48,0,0,0,0,7.11Z" transform="translate(0 0)" style="fill: url(#linear-gradient-2)"/>
          <path d="M0,7.11v4.1c0,.45.62,1.3.62,1.41v5.45c0,.11-.62,1-.62,1.41v4.1a1.48,1.48,0,0,0,1.59,1.34H5a1.48,1.48,0,0,0,1.59-1.34v-4.1c0-.45-.62-1.3-.62-1.41V12.62c0-.11.62-1,.62-1.41V7.11A1.48,1.48,0,0,0,5,5.76H1.59A1.48,1.48,0,0,0,0,7.11Z" transform="translate(0 0)" style="fill: #ffe2a8;mix-blend-mode: multiply"/>
        </g>
        <g style="mix-blend-mode: multiply">
          <rect id="_1st_Band" data-name="1st_Band" y="20.12" width="6.63" height="1.7" style="fill: #E64733;"/>
        </g>
        <g style="mix-blend-mode: multiply">
          <rect id="_2nd_Band" data-name="2nd_Band" x="0.62" y="16.26" width="5.4" height="1.7" style="fill: #E64733;"/>
        </g>
        <g style="mix-blend-mode: multiply">
          <rect id="_3rd_Band" data-name="3rd_Band" x="0.62" y="12.4" width="5.4" height="1.7" style="fill: #805733;"/>
        </g>
        <g style="mix-blend-mode: multiply">
          <rect id="_4th_Band" data-name="4th_Band" y="8.54" width="6.63" height="1.7" style="fill: url(#Gold_Radial)"/>
        </g>
      </g>
    </g>
    <g id="Layer_3" data-name="Layer 3">
      <circle cx="3.32" cy="0.63" data-cir-type="male" id="circuitoCon_con0" r="0.6" style="fill: none"/>
      <circle cx="3.32" cy="30.08" data-cir-type="male" id="circuitoCon_con1" r="0.6" style="fill: none"/>
    </g>
  </g>
</svg>