<svg version="1.1" viewBox="0.0 0.0 566.0 471.0" fill="none" stroke="none" stroke-linecap="square" stroke-miterlimit="10" width="566" height="471" xmlns:xlink="http://www.w3.org/1999/xlink" xmlns="http://www.w3.org/2000/svg"><path fill="#ffffff" d="M0 0L566.0 0L566.0 471.0L0 471.0L0 0Z" fill-rule="nonzero"/><path stroke="#333333" stroke-width="1.0" stroke-linecap="butt" d="M82.5 427.5L542.5 427.5" fill-rule="nonzero"/><path stroke="#cccccc" stroke-width="1.0" stroke-linecap="butt" d="M82.5 318.5L542.5 318.5" fill-rule="nonzero"/><path stroke="#cccccc" stroke-width="1.0" stroke-linecap="butt" d="M82.5 209.5L542.5 209.5" fill-rule="nonzero"/><path stroke="#cccccc" stroke-width="1.0" stroke-linecap="butt" d="M82.5 99.5L542.5 99.5" fill-rule="nonzero"/><clipPath id="id_0"><path d="M82.55 99.95L542.45 99.95L542.45 427.45L82.55 427.45L82.55 99.95Z" clip-rule="nonzero"/></clipPath><path stroke="#000000" stroke-width="2.0" stroke-linecap="butt" stroke-opacity="0.0" clip-path="url(#id_0)" d="M153.0 427.0L121.0 427.0L121.0 151.0C121.0 149.89543 121.89543 149.0 123.0 149.0L151.0 149.0C152.10457 149.0 153.0 149.89543 153.0 151.0Z" fill-rule="nonzero"/><path fill="#4285f4" clip-path="url(#id_0)" d="M153.0 427.0L121.0 427.0L121.0 151.0C121.0 149.89543 121.89543 149.0 123.0 149.0L151.0 149.0C152.10457 149.0 153.0 149.89543 153.0 151.0Z" fill-rule="nonzero"/><path stroke="#000000" stroke-width="2.0" stroke-linecap="butt" stroke-opacity="0.0" clip-path="url(#id_0)" d="M259.0 427.0L227.0 427.0L227.0 375.0C227.0 373.89542 227.89543 373.0 229.0 373.0L257.0 373.0C258.10458 373.0 259.0 373.89542 259.0 375.0Z" fill-rule="nonzero"/><path fill="#4285f4" clip-path="url(#id_0)" d="M259.0 427.0L227.0 427.0L227.0 375.0C227.0 373.89542 227.89543 373.0 229.0 373.0L257.0 373.0C258.10458 373.0 259.0 373.89542 259.0 375.0Z" fill-rule="nonzero"/><path stroke="#000000" stroke-width="2.0" stroke-linecap="butt" stroke-opacity="0.0" clip-path="url(#id_0)" d="M364.0 427.0L332.0 427.0L332.0 380.0C332.0 378.89542 332.89542 378.0 334.0 378.0L362.0 378.0C363.10458 378.0 364.0 378.89542 364.0 380.0Z" fill-rule="nonzero"/><path fill="#4285f4" clip-path="url(#id_0)" d="M364.0 427.0L332.0 427.0L332.0 380.0C332.0 378.89542 332.89542 378.0 334.0 378.0L362.0 378.0C363.10458 378.0 364.0 378.89542 364.0 380.0Z" fill-rule="nonzero"/><path stroke="#000000" stroke-width="2.0" stroke-linecap="butt" stroke-opacity="0.0" clip-path="url(#id_0)" d="M470.0 427.0L438.0 427.0L438.0 380.0C438.0 378.89542 438.89542 378.0 440.0 378.0L468.0 378.0C469.10458 378.0 470.0 378.89542 470.0 380.0Z" fill-rule="nonzero"/><path fill="#4285f4" clip-path="url(#id_0)" d="M470.0 427.0L438.0 427.0L438.0 380.0C438.0 378.89542 438.89542 378.0 440.0 378.0L468.0 378.0C469.10458 378.0 470.0 378.89542 470.0 380.0Z" fill-rule="nonzero"/><path stroke="#000000" stroke-width="2.0" stroke-linecap="butt" stroke-opacity="0.0" clip-path="url(#id_0)" d="M187.0 427.0L155.0 427.0L155.0 217.0C155.0 215.89543 155.89543 215.0 157.0 215.0L185.0 215.0C186.10457 215.0 187.0 215.89543 187.0 217.0Z" fill-rule="nonzero"/><path fill="#ea4335" clip-path="url(#id_0)" d="M187.0 427.0L155.0 427.0L155.0 217.0C155.0 215.89543 155.89543 215.0 157.0 215.0L185.0 215.0C186.10457 215.0 187.0 215.89543 187.0 217.0Z" fill-rule="nonzero"/><path stroke="#000000" stroke-width="2.0" stroke-linecap="butt" stroke-opacity="0.0" clip-path="url(#id_0)" d="M293.0 427.0L261.0 427.0L261.0 419.0C261.0 417.89542 261.89542 417.0 263.0 417.0L291.0 417.0C292.10458 417.0 293.0 417.89542 293.0 419.0Z" fill-rule="nonzero"/><path fill="#ea4335" clip-path="url(#id_0)" d="M293.0 427.0L261.0 427.0L261.0 419.0C261.0 417.89542 261.89542 417.0 263.0 417.0L291.0 417.0C292.10458 417.0 293.0 417.89542 293.0 419.0Z" fill-rule="nonzero"/><path stroke="#000000" stroke-width="2.0" stroke-linecap="butt" stroke-opacity="0.0" clip-path="url(#id_0)" d="M398.0 427.0L366.0 427.0L366.0 427.0C366.0 427.0 366.0 427.0 366.0 427.0L398.0 427.0C398.0 427.0 398.0 427.0 398.0 427.0Z" fill-rule="nonzero"/><path fill="#ea4335" clip-path="url(#id_0)" d="M398.0 427.0L366.0 427.0L366.0 427.0C366.0 427.0 366.0 427.0 366.0 427.0L398.0 427.0C398.0 427.0 398.0 427.0 398.0 427.0Z" fill-rule="nonzero"/><path stroke="#000000" stroke-width="2.0" stroke-linecap="butt" stroke-opacity="0.0" clip-path="url(#id_0)" d="M504.0 427.0L472.0 427.0L472.0 427.0C472.0 427.0 472.0 427.0 472.0 427.0L504.0 427.0C504.0 427.0 504.0 427.0 504.0 427.0Z" fill-rule="nonzero"/><path fill="#ea4335" clip-path="url(#id_0)" d="M504.0 427.0L472.0 427.0L472.0 427.0C472.0 427.0 472.0 427.0 472.0 427.0L504.0 427.0C504.0 427.0 504.0 427.0 504.0 427.0Z" fill-rule="nonzero"/><path fill="#000000" d="M31.534388 298.1375L31.831263 297.0125Q33.221886 297.3719 33.95626 298.29376Q34.690636 299.21564 34.690636 300.5594Q34.690636 301.95 34.128136 302.825Q33.565636 303.7 32.503136 304.15314Q31.425013 304.60626 30.190638 304.60626Q28.846888 304.60626 27.846888 304.09064Q26.846888 303.575 26.331263 302.6375Q25.815638 301.6844 25.815638 300.54376Q25.815638 299.2625 26.471888 298.3875Q27.128138 297.4969 28.315638 297.15314L28.581263 298.27814Q27.643763 298.575 27.221888 299.15314Q26.784388 299.71564 26.784388 300.575Q26.784388 301.5594 27.268763 302.23126Q27.737513 302.8875 28.534388 303.16876Q29.331263 303.4344 30.190638 303.4344Q31.284388 303.4344 32.096886 303.1219Q32.909386 302.79376 33.315636 302.1219Q33.721886 301.45 33.721886 300.65314Q33.721886 299.7 33.17501 299.04376Q32.628136 298.3719 31.534388 298.1375ZM34.55001 291.325L33.628136 291.325Q34.690636 292.0594 34.690636 293.3094Q34.690636 293.85626 34.48751 294.34064Q34.26876 294.8094 33.95626 295.04376Q33.628136 295.27814 33.159386 295.3719Q32.86251 295.4344 32.17501 295.4344L28.331263 295.4344L28.331263 294.3719L31.784388 294.3719Q32.596886 294.3719 32.89376 294.3094Q33.30001 294.21564 33.55001 293.90314Q33.784386 293.575 33.784386 293.09064Q33.784386 292.6219 33.55001 292.21564Q33.30001 291.79376 32.878136 291.6219Q32.45626 291.4344 31.659388 291.4344L28.331263 291.4344L28.331263 290.3875L34.55001 290.3875L34.55001 291.325ZM34.55001 288.41876L28.331263 288.41876L28.331263 287.46564L29.268763 287.46564Q28.612513 287.10626 28.409388 286.8094Q28.190638 286.4969 28.190638 286.1219Q28.190638 285.59064 28.518763 285.04376L29.503138 285.40314Q29.268763 285.79376 29.268763 286.16876Q29.268763 286.52814 29.487513 286.8094Q29.690638 287.075 30.065638 287.1844Q30.628138 287.3719 31.284388 287.3719L34.55001 287.3719L34.55001 288.41876ZM34.55001 284.41876L28.331263 284.41876L28.331263 283.46564L29.268763 283.46564Q28.612513 283.10626 28.409388 282.8094Q28.190638 282.4969 28.190638 282.1219Q28.190638 281.59064 28.518763 281.04376L29.503138 281.40314Q29.268763 281.79376 29.268763 282.16876Q29.268763 282.52814 29.487513 282.8094Q29.690638 283.075 30.065638 283.1844Q30.628138 283.3719 31.284388 283.3719L34.55001 283.3719L34.55001 284.41876ZM32.55001 276.15314L32.67501 275.0594Q33.628136 275.3094 34.159386 276.0125Q34.690636 276.71564 34.690636 277.79376Q34.690636 279.15314 33.846886 279.96564Q33.003136 280.7625 31.487513 280.7625Q29.925013 280.7625 29.065638 279.95Q28.190638 279.1375 28.190638 277.85626Q28.190638 276.60626 29.034388 275.825Q29.878138 275.02814 31.425013 275.02814Q31.518763 275.02814 31.706263 275.02814L31.706263 279.66876Q32.73751 279.60626 33.284386 279.09064Q33.815636 278.575 33.815636 277.79376Q33.815636 277.21564 33.51876 276.8094Q33.20626 276.3875 32.55001 276.15314ZM30.846888 279.60626L30.846888 276.1375Q30.050013 276.2 29.659388 276.52814Q29.050013 277.04376 29.050013 277.84064Q29.050013 278.575 29.534388 279.075Q30.018763 279.5594 30.846888 279.60626ZM34.55001 273.40314L28.331263 273.40314L28.331263 272.46564L29.206263 272.46564Q28.190638 271.77814 28.190638 270.48126Q28.190638 269.91876 28.393763 269.45Q28.596888 268.96564 28.925013 268.73126Q29.253138 268.4969 29.690638 268.40314Q29.987513 268.35626 30.721888 268.35626L34.55001 268.35626L34.55001 269.40314L30.768763 269.40314Q30.112513 269.40314 29.800013 269.52814Q29.487513 269.65314 29.300013 269.96564Q29.096888 270.27814 29.096888 270.7Q29.096888 271.3719 29.534388 271.8719Q29.956263 272.35626 31.143763 272.35626L34.55001 272.35626L34.55001 273.40314ZM33.61251 264.10626L34.534386 263.95Q34.628136 264.40314 34.628136 264.7469Q34.628136 265.325 34.45626 265.6375Q34.26876 265.95 33.971886 266.09064Q33.67501 266.21564 32.721886 266.21564L29.143763 266.21564L29.143763 266.98126L28.331263 266.98126L28.331263 266.21564L26.784388 266.21564L26.159388 265.16876L28.331263 265.16876L28.331263 264.10626L29.143763 264.10626L29.143763 265.16876L32.784386 265.16876Q33.23751 265.16876 33.36251 265.1219Q33.48751 265.0594 33.565636 264.9344Q33.64376 264.8094 33.64376 264.575Q33.64376 264.3875 33.61251 264.10626ZM37.08126 258.3875Q35.971886 259.2625 34.503136 259.8719Q33.01876 260.46564 31.440638 260.46564Q30.050013 260.46564 28.768763 260.02814Q27.284388 259.4969 25.815638 258.3875L25.815638 257.6375Q27.034388 258.34064 27.550013 258.575Q28.362513 258.9344 29.237513 259.1375Q30.331263 259.3875 31.440638 259.3875Q34.26876 259.3875 37.08126 257.6375L37.08126 258.3875ZM34.55001 256.40314L28.331263 256.40314L28.331263 255.46562L29.206263 255.46562Q28.737513 255.16875 28.471888 254.68437Q28.190638 254.2 28.190638 253.575Q28.190638 252.8875 28.471888 252.45Q28.753138 251.99687 29.268763 251.825Q28.190638 251.075 28.190638 249.90312Q28.190638 248.96562 28.706263 248.48125Q29.206263 247.98125 30.284388 247.98125L34.55001 247.98125L34.55001 249.02812L30.628138 249.02812Q30.003138 249.02812 29.721888 249.1375Q29.440638 249.23125 29.268763 249.49687Q29.096888 249.7625 29.096888 250.1375Q29.096888 250.79375 29.534388 251.23125Q29.971888 251.65312 30.940638 251.65312L34.55001 251.65312L34.55001 252.71562L30.503138 252.71562Q29.800013 252.71562 29.456263 252.98125Q29.096888 253.23125 29.096888 253.80937Q29.096888 254.2625 29.331263 254.6375Q29.565638 255.0125 30.018763 255.18437Q30.471888 255.35625 31.315638 255.35625L34.55001 255.35625L34.55001 256.40314ZM34.55001 246.21562L25.956263 242.91875L25.956263 241.7L34.55001 238.18437L34.55001 239.46562L31.940638 240.48125L31.940638 244.05937L34.55001 245.0125L34.55001 246.21562ZM31.018763 243.73125L31.018763 240.825L28.643763 241.71562Q27.565638 242.1375 26.862513 242.325Q27.690638 242.49687 28.503138 242.79375L31.018763 243.73125ZM37.08126 237.71562L37.08126 238.46562Q34.26876 236.71562 31.440638 236.71562Q30.346888 236.71562 29.253138 236.96562Q28.378138 237.16875 27.565638 237.52812Q27.050013 237.7625 25.815638 238.46562L25.815638 237.71562Q27.284388 236.62187 28.768763 236.09062Q30.050013 235.6375 31.440638 235.6375Q33.01876 235.6375 34.503136 236.24687Q35.971886 236.85625 37.08126 237.71562Z" fill-rule="nonzero"/><path fill="#000000" d="M70.05 427.21564Q70.05 425.6844 70.3625 424.7625Q70.675 423.825 71.28438 423.325Q71.90938 422.825 72.84688 422.825Q73.53438 422.825 74.05 423.10626Q74.58125 423.3875 74.925 423.91876Q75.26875 424.4344 75.45625 425.1844Q75.64375 425.9344 75.64375 427.21564Q75.64375 428.73126 75.33125 429.65314Q75.03438 430.575 74.40938 431.09064Q73.8 431.59064 72.84688 431.59064Q71.6125 431.59064 70.89375 430.7Q70.05 429.6375 70.05 427.21564ZM71.12813 427.21564Q71.12813 429.325 71.62813 430.02814Q72.12813 430.73126 72.84688 430.73126Q73.58125 430.73126 74.06563 430.02814Q74.56563 429.325 74.56563 427.21564Q74.56563 425.09064 74.06563 424.40314Q73.58125 423.7 72.83125 423.7Q72.1125 423.7 71.675 424.3094Q71.12813 425.09064 71.12813 427.21564Z" fill-rule="nonzero"/><path fill="#000000" d="M68.59688 321.2677L68.59688 322.28333L62.909374 322.28333Q62.909374 321.90833 63.034374 321.54895Q63.253124 320.97083 63.721874 320.40833Q64.20625 319.84583 65.1125 319.11145Q66.51875 317.9552 67.00313 317.28333Q67.50313 316.61145 67.50313 316.0177Q67.50313 315.3927 67.05 314.97083Q66.59688 314.53333 65.87813 314.53333Q65.1125 314.53333 64.65938 314.98645Q64.20625 315.43958 64.19063 316.25208L63.1125 316.1427Q63.221874 314.92395 63.940624 314.29895Q64.675 313.65833 65.90938 313.65833Q67.14375 313.65833 67.8625 314.34583Q68.58125 315.03333 68.58125 316.04895Q68.58125 316.56458 68.3625 317.06458Q68.15938 317.54895 67.65938 318.11145Q67.175 318.65833 66.05 319.61145Q65.09688 320.40833 64.81563 320.7052Q64.55 320.98645 64.37813 321.2677L68.59688 321.2677ZM70.05 318.04895Q70.05 316.5177 70.3625 315.59583Q70.675 314.65833 71.28438 314.15833Q71.90938 313.65833 72.84688 313.65833Q73.53438 313.65833 74.05 313.93958Q74.58125 314.22083 74.925 314.75208Q75.26875 315.2677 75.45625 316.0177Q75.64375 316.7677 75.64375 318.04895Q75.64375 319.56458 75.33125 320.48645Q75.03438 321.40833 74.40938 321.92395Q73.8 322.42395 72.84688 322.42395Q71.6125 322.42395 70.89375 321.53333Q70.05 320.47083 70.05 318.04895ZM71.12813 318.04895Q71.12813 320.15833 71.62813 320.86145Q72.12813 321.56458 72.84688 321.56458Q73.58125 321.56458 74.06563 320.86145Q74.56563 320.15833 74.56563 318.04895Q74.56563 315.92395 74.06563 315.23645Q73.58125 314.53333 72.83125 314.53333Q72.1125 314.53333 71.675 315.1427Q71.12813 315.92395 71.12813 318.04895Z" fill-rule="nonzero"/><path fill="#000000" d="M66.425 213.11667L66.425 211.05417L62.70625 211.05417L62.70625 210.08542L66.62813 204.52292L67.4875 204.52292L67.4875 210.08542L68.64375 210.08542L68.64375 211.05417L67.4875 211.05417L67.4875 213.11667L66.425 213.11667ZM66.425 210.08542L66.425 206.22604L63.7375 210.08542L66.425 210.08542ZM70.05 208.8823Q70.05 207.35104 70.3625 206.42917Q70.675 205.49167 71.28438 204.99167Q71.90938 204.49167 72.84688 204.49167Q73.53438 204.49167 74.05 204.77292Q74.58125 205.05417 74.925 205.58542Q75.26875 206.10104 75.45625 206.85104Q75.64375 207.60104 75.64375 208.8823Q75.64375 210.39792 75.33125 211.3198Q75.03438 212.24167 74.40938 212.7573Q73.8 213.2573 72.84688 213.2573Q71.6125 213.2573 70.89375 212.36667Q70.05 211.30417 70.05 208.8823ZM71.12813 208.8823Q71.12813 210.99167 71.62813 211.6948Q72.12813 212.39792 72.84688 212.39792Q73.58125 212.39792 74.06563 211.6948Q74.56563 210.99167 74.56563 208.8823Q74.56563 206.7573 74.06563 206.0698Q73.58125 205.36667 72.83125 205.36667Q72.1125 205.36667 71.675 205.97604Q71.12813 206.7573 71.12813 208.8823Z" fill-rule="nonzero"/><path fill="#000000" d="M68.51875 97.46562L67.47188 97.54375Q67.33125 96.91875 67.08125 96.6375Q66.64375 96.18437 66.01875 96.18437Q65.51875 96.18437 65.12813 96.46562Q64.64375 96.84062 64.34688 97.54375Q64.06563 98.23125 64.05 99.5125Q64.425 98.93437 64.97188 98.65312Q65.53438 98.37187 66.14375 98.37187Q67.19063 98.37187 67.925 99.15312Q68.675 99.93437 68.675 101.15312Q68.675 101.96562 68.31563 102.66875Q67.97188 103.35625 67.3625 103.73125Q66.75313 104.09062 65.9875 104.09062Q64.65938 104.09062 63.83125 103.12187Q63.003124 102.15312 63.003124 99.93437Q63.003124 97.43437 63.925 96.30937Q64.72188 95.325 66.08125 95.325Q67.09688 95.325 67.7375 95.90312Q68.39375 96.46562 68.51875 97.46562ZM64.22188 101.16875Q64.22188 101.71562 64.44063 102.21562Q64.675 102.7 65.08125 102.96562Q65.50313 103.23125 65.97188 103.23125Q66.62813 103.23125 67.1125 102.7Q67.59688 102.15312 67.59688 101.23125Q67.59688 100.34062 67.1125 99.825Q66.64375 99.30937 65.925 99.30937Q65.20625 99.30937 64.70625 99.825Q64.22188 100.34062 64.22188 101.16875ZM70.05 99.71562Q70.05 98.18437 70.3625 97.2625Q70.675 96.325 71.28438 95.825Q71.90938 95.325 72.84688 95.325Q73.53438 95.325 74.05 95.60625Q74.58125 95.8875 74.925 96.41875Q75.26875 96.93437 75.45625 97.68437Q75.64375 98.43437 75.64375 99.71562Q75.64375 101.23125 75.33125 102.15312Q75.03438 103.075 74.40938 103.59062Q73.8 104.09062 72.84688 104.09062Q71.6125 104.09062 70.89375 103.2Q70.05 102.1375 70.05 99.71562ZM71.12813 99.71562Q71.12813 101.825 71.62813 102.52812Q72.12813 103.23125 72.84688 103.23125Q73.58125 103.23125 74.06563 102.52812Q74.56563 101.825 74.56563 99.71562Q74.56563 97.59062 74.06563 96.90312Q73.58125 96.2 72.83125 96.2Q72.1125 96.2 71.675 96.80937Q71.12813 97.59062 71.12813 99.71562Z" fill-rule="nonzero"/><path fill="#000000" d="M126.351295 444.45L126.351295 435.85626L130.16379 435.85626Q131.32004 435.85626 131.91379 436.09064Q132.50754 436.325 132.86691 436.91876Q133.22629 437.4969 133.22629 438.2Q133.22629 439.1219 132.63254 439.7469Q132.03879 440.3719 130.80441 440.54376Q131.25754 440.7625 131.49191 440.96564Q131.99191 441.41876 132.42941 442.10626L133.92941 444.45L132.49191 444.45L131.36691 442.66876Q130.86691 441.8875 130.53879 441.48126Q130.22629 441.075 129.96066 440.91876Q129.71066 440.7469 129.44504 440.66876Q129.25754 440.6375 128.82004 440.6375L127.49192 440.6375L127.49192 444.45L126.351295 444.45ZM127.49192 439.65314L129.94504 439.65314Q130.71066 439.65314 131.14816 439.4969Q131.60129 439.325 131.82004 438.98126Q132.05441 438.6219 132.05441 438.2Q132.05441 437.59064 131.60129 437.2Q131.16379 436.8094 130.21066 436.8094L127.49192 436.8094L127.49192 439.65314ZM139.46066 442.45L140.55441 442.575Q140.30441 443.52814 139.60129 444.0594Q138.89816 444.59064 137.82004 444.59064Q136.46066 444.59064 135.64816 443.7469Q134.85129 442.90314 134.85129 441.3875Q134.85129 439.825 135.66379 438.96564Q136.47629 438.09064 137.75754 438.09064Q139.00754 438.09064 139.78879 438.9344Q140.58566 439.77814 140.58566 441.325Q140.58566 441.41876 140.58566 441.60626L135.94504 441.60626Q136.00754 442.6375 136.52316 443.1844Q137.03879 443.71564 137.82004 443.71564Q138.39816 443.71564 138.80441 443.41876Q139.22629 443.10626 139.46066 442.45ZM136.00754 440.7469L139.47629 440.7469Q139.41379 439.95 139.08566 439.5594Q138.57004 438.95 137.77316 438.95Q137.03879 438.95 136.53879 439.4344Q136.05441 439.91876 136.00754 440.7469ZM142.46066 444.45L142.46066 439.04376L141.52316 439.04376L141.52316 438.23126L142.46066 438.23126L142.46066 437.5594Q142.46066 436.9344 142.57004 436.6375Q142.72629 436.21564 143.10129 435.96564Q143.49191 435.71564 144.17941 435.71564Q144.63254 435.71564 145.16379 435.825L145.00754 436.73126Q144.67941 436.6844 144.38254 436.6844Q143.89816 436.6844 143.69504 436.8875Q143.50754 437.09064 143.50754 437.65314L143.50754 438.23126L144.72629 438.23126L144.72629 439.04376L143.50754 439.04376L143.50754 444.45L142.46066 444.45ZM149.46066 442.45L150.55441 442.575Q150.30441 443.52814 149.60129 444.0594Q148.89816 444.59064 147.82004 444.59064Q146.46066 444.59064 145.64816 443.7469Q144.85129 442.90314 144.85129 441.3875Q144.85129 439.825 145.66379 438.96564Q146.47629 438.09064 147.75754 438.09064Q149.00754 438.09064 149.78879 438.9344Q150.58566 439.77814 150.58566 441.325Q150.58566 441.41876 150.58566 441.60626L145.94504 441.60626Q146.00754 442.6375 146.52316 443.1844Q147.03879 443.71564 147.82004 443.71564Q148.39816 443.71564 148.80441 443.41876Q149.22629 443.10626 149.46066 442.45ZM146.00754 440.7469L149.47629 440.7469Q149.41379 439.95 149.08566 439.5594Q148.57004 438.95 147.77316 438.95Q147.03879 438.95 146.53879 439.4344Q146.05441 439.91876 146.00754 440.7469ZM152.19504 444.45L152.19504 438.23126L153.14816 438.23126L153.14816 439.16876Q153.50754 438.5125 153.80441 438.3094Q154.11691 438.09064 154.49191 438.09064Q155.02316 438.09064 155.57004 438.41876L155.21066 439.40314Q154.82004 439.16876 154.44504 439.16876Q154.08566 439.16876 153.80441 439.3875Q153.53879 439.59064 153.42941 439.96564Q153.24191 440.52814 153.24191 441.1844L153.24191 444.45L152.19504 444.45ZM160.46066 442.45L161.55441 442.575Q161.30441 443.52814 160.60129 444.0594Q159.89816 444.59064 158.82004 444.59064Q157.46066 444.59064 156.64816 443.7469Q155.85129 442.90314 155.85129 441.3875Q155.85129 439.825 156.66379 438.96564Q157.47629 438.09064 158.75754 438.09064Q160.00754 438.09064 160.78879 438.9344Q161.58566 439.77814 161.58566 441.325Q161.58566 441.41876 161.58566 441.60626L156.94504 441.60626Q157.00754 442.6375 157.52316 443.1844Q158.03879 443.71564 158.82004 443.71564Q159.39816 443.71564 159.80441 443.41876Q160.22629 443.10626 160.46066 442.45ZM157.00754 440.7469L160.47629 440.7469Q160.41379 439.95 160.08566 439.5594Q159.57004 438.95 158.77316 438.95Q158.03879 438.95 157.53879 439.4344Q157.05441 439.91876 157.00754 440.7469ZM163.21066 444.45L163.21066 438.23126L164.14816 438.23126L164.14816 439.10626Q164.83566 438.09064 166.13254 438.09064Q166.69504 438.09064 167.16379 438.29376Q167.64816 438.4969 167.88254 438.825Q168.11691 439.15314 168.21066 439.59064Q168.25754 439.8875 168.25754 440.6219L168.25754 444.45L167.21066 444.45L167.21066 440.66876Q167.21066 440.0125 167.08566 439.7Q166.96066 439.3875 166.64816 439.2Q166.33566 438.9969 165.91379 438.9969Q165.24191 438.9969 164.74191 439.4344Q164.25754 439.85626 164.25754 441.04376L164.25754 444.45L163.21066 444.45ZM174.27316 442.16876L175.30441 442.3094Q175.13254 443.3719 174.42941 443.98126Q173.72629 444.59064 172.71066 444.59064Q171.42941 444.59064 170.64816 443.7625Q169.88254 442.91876 169.88254 441.35626Q169.88254 440.35626 170.21066 439.60626Q170.55441 438.84064 171.22629 438.46564Q171.91379 438.09064 172.72629 438.09064Q173.72629 438.09064 174.36691 438.60626Q175.02316 439.10626 175.21066 440.0594L174.17941 440.21564Q174.03879 439.59064 173.66379 439.27814Q173.28879 438.95 172.75754 438.95Q171.96066 438.95 171.46066 439.52814Q170.96066 440.09064 170.96066 441.325Q170.96066 442.59064 171.44504 443.15314Q171.92941 443.71564 172.69504 443.71564Q173.32004 443.71564 173.72629 443.34064Q174.14816 442.96564 174.27316 442.16876ZM180.46066 442.45L181.55441 442.575Q181.30441 443.52814 180.60129 444.0594Q179.89816 444.59064 178.82004 444.59064Q177.46066 444.59064 176.64816 443.7469Q175.85129 442.90314 175.85129 441.3875Q175.85129 439.825 176.66379 438.96564Q177.47629 438.09064 178.75754 438.09064Q180.00754 438.09064 180.78879 438.9344Q181.58566 439.77814 181.58566 441.325Q181.58566 441.41876 181.58566 441.60626L176.94504 441.60626Q177.00754 442.6375 177.52316 443.1844Q178.03879 443.71564 178.82004 443.71564Q179.39816 443.71564 179.80441 443.41876Q180.22629 443.10626 180.46066 442.45ZM177.00754 440.7469L180.47629 440.7469Q180.41379 439.95 180.08566 439.5594Q179.57004 438.95 178.77316 438.95Q178.03879 438.95 177.53879 439.4344Q177.05441 439.91876 177.00754 440.7469Z" fill-rule="nonzero"/><path fill="#000000" d="M229.01292 444.45L229.01292 435.85626L230.15355 435.85626L230.15355 443.4344L234.38792 443.4344L234.38792 444.45L229.01292 444.45ZM235.9348 437.075L235.9348 435.85626L236.9973 435.85626L236.9973 437.075L235.9348 437.075ZM235.9348 444.45L235.9348 438.23126L236.9973 438.23126L236.9973 444.45L235.9348 444.45ZM238.73167 444.96564L239.76292 445.1219Q239.82542 445.59064 240.1223 445.8094Q240.51292 446.10626 241.1848 446.10626Q241.91917 446.10626 242.3098 445.8094Q242.71605 445.5125 242.85667 444.9969Q242.95042 444.66876 242.9348 443.6375Q242.2473 444.45 241.21605 444.45Q239.9348 444.45 239.23167 443.52814Q238.52855 442.59064 238.52855 441.3094Q238.52855 440.41876 238.84105 439.66876Q239.16917 438.90314 239.77855 438.4969Q240.38792 438.09064 241.21605 438.09064Q242.32542 438.09064 243.04417 438.98126L243.04417 438.23126L244.01292 438.23126L244.01292 443.60626Q244.01292 445.0594 243.71605 445.66876Q243.41917 446.27814 242.77855 446.6219Q242.13792 446.98126 241.20042 446.98126Q240.09105 446.98126 239.40355 446.48126Q238.71605 445.98126 238.73167 444.96564ZM239.60667 441.23126Q239.60667 442.45 240.09105 443.0125Q240.57542 443.575 241.3098 443.575Q242.04417 443.575 242.52855 443.0125Q243.02855 442.45 243.02855 441.2625Q243.02855 440.1219 242.51292 439.54376Q242.01292 438.96564 241.29417 438.96564Q240.59105 438.96564 240.09105 439.54376Q239.60667 440.10626 239.60667 441.23126ZM245.9348 444.45L245.9348 435.85626L246.98167 435.85626L246.98167 438.9344Q247.71605 438.09064 248.84105 438.09064Q249.54417 438.09064 250.04417 438.3719Q250.5598 438.6375 250.77855 439.1219Q250.9973 439.59064 250.9973 440.5125L250.9973 444.45L249.95042 444.45L249.95042 440.5125Q249.95042 439.71564 249.60667 439.35626Q249.26292 438.9969 248.63792 438.9969Q248.16917 438.9969 247.7473 439.2469Q247.34105 439.48126 247.15355 439.90314Q246.98167 440.3094 246.98167 441.04376L246.98167 444.45L245.9348 444.45ZM255.23167 443.5125L255.38792 444.4344Q254.9348 444.52814 254.59105 444.52814Q254.01292 444.52814 253.70042 444.35626Q253.38792 444.16876 253.2473 443.8719Q253.1223 443.575 253.1223 442.6219L253.1223 439.04376L252.35667 439.04376L252.35667 438.23126L253.1223 438.23126L253.1223 436.6844L254.16917 436.0594L254.16917 438.23126L255.23167 438.23126L255.23167 439.04376L254.16917 439.04376L254.16917 442.6844Q254.16917 443.1375 254.21605 443.2625Q254.27855 443.3875 254.40355 443.46564Q254.52855 443.54376 254.76292 443.54376Q254.95042 443.54376 255.23167 443.5125ZM255.51292 441.8719L255.51292 440.8094L258.76294 440.8094L258.76294 441.8719L255.51292 441.8719ZM259.6848 441.6844L260.7473 441.59064Q260.82544 442.2469 261.1067 442.65314Q261.38794 443.0594 261.96606 443.325Q262.5598 443.575 263.2942 443.575Q263.9348 443.575 264.4348 443.3875Q264.9348 443.1844 265.1692 442.85626Q265.4192 442.5125 265.4192 442.1219Q265.4192 441.71564 265.1848 441.41876Q264.95044 441.10626 264.4192 440.90314Q264.0598 440.7625 262.8723 440.48126Q261.70044 440.2 261.2317 439.95Q260.6067 439.6219 260.3098 439.15314Q260.01294 438.66876 260.01294 438.075Q260.01294 437.4344 260.3723 436.8719Q260.7473 436.29376 261.45044 436.0125Q262.1692 435.71564 263.02856 435.71564Q263.9817 435.71564 264.71606 436.02814Q265.45044 436.325 265.84106 436.9344Q266.2317 437.52814 266.26294 438.27814L265.1692 438.35626Q265.07544 437.54376 264.5598 437.1375Q264.0598 436.71564 263.07544 436.71564Q262.0442 436.71564 261.57544 437.09064Q261.1067 437.46564 261.1067 437.9969Q261.1067 438.46564 261.4348 438.7625Q261.76294 439.0594 263.13794 439.3719Q264.52856 439.6844 265.0442 439.91876Q265.7942 440.27814 266.15356 440.8094Q266.51294 441.325 266.51294 442.02814Q266.51294 442.71564 266.1223 443.325Q265.7317 443.91876 264.9973 444.2625Q264.26294 444.59064 263.34106 444.59064Q262.1692 444.59064 261.3723 444.2625Q260.59106 443.91876 260.13794 443.23126Q259.70044 442.54376 259.6848 441.6844ZM267.90356 444.45L267.90356 435.85626L268.96606 435.85626L268.96606 444.45L267.90356 444.45ZM275.1848 442.45L276.27856 442.575Q276.02856 443.52814 275.32544 444.0594Q274.6223 444.59064 273.5442 444.59064Q272.1848 444.59064 271.3723 443.7469Q270.57544 442.90314 270.57544 441.3875Q270.57544 439.825 271.38794 438.96564Q272.20044 438.09064 273.4817 438.09064Q274.7317 438.09064 275.51294 438.9344Q276.3098 439.77814 276.3098 441.325Q276.3098 441.41876 276.3098 441.60626L271.6692 441.60626Q271.7317 442.6375 272.2473 443.1844Q272.76294 443.71564 273.5442 443.71564Q274.1223 443.71564 274.52856 443.41876Q274.95044 443.10626 275.1848 442.45ZM271.7317 440.7469L275.20044 440.7469Q275.13794 439.95 274.8098 439.5594Q274.2942 438.95 273.4973 438.95Q272.76294 438.95 272.26294 439.4344Q271.77856 439.91876 271.7317 440.7469ZM282.1848 442.45L283.27856 442.575Q283.02856 443.52814 282.32544 444.0594Q281.6223 444.59064 280.5442 444.59064Q279.1848 444.59064 278.3723 443.7469Q277.57544 442.90314 277.57544 441.3875Q277.57544 439.825 278.38794 438.96564Q279.20044 438.09064 280.4817 438.09064Q281.7317 438.09064 282.51294 438.9344Q283.3098 439.77814 283.3098 441.325Q283.3098 441.41876 283.3098 441.60626L278.6692 441.60626Q278.7317 442.6375 279.2473 443.1844Q279.76294 443.71564 280.5442 443.71564Q281.1223 443.71564 281.52856 443.41876Q281.95044 443.10626 282.1848 442.45ZM278.7317 440.7469L282.20044 440.7469Q282.13794 439.95 281.8098 439.5594Q281.2942 438.95 280.4973 438.95Q279.76294 438.95 279.26294 439.4344Q278.77856 439.91876 278.7317 440.7469ZM284.9348 446.84064L284.9348 438.23126L285.88794 438.23126L285.88794 439.02814Q286.2317 438.5594 286.65356 438.325Q287.09106 438.09064 287.70044 438.09064Q288.4973 438.09064 289.1067 438.4969Q289.71606 438.90314 290.01294 439.65314Q290.32544 440.40314 290.32544 441.29376Q290.32544 442.2469 289.9817 443.0125Q289.65356 443.77814 288.9973 444.1844Q288.34106 444.59064 287.6223 444.59064Q287.09106 444.59064 286.6692 444.3719Q286.2473 444.1375 285.9817 443.8094L285.9817 446.84064L284.9348 446.84064ZM285.88794 441.3719Q285.88794 442.575 286.3723 443.15314Q286.8567 443.71564 287.5442 443.71564Q288.2473 443.71564 288.7473 443.1219Q289.2473 442.52814 289.2473 441.27814Q289.2473 440.09064 288.76294 439.5125Q288.27856 438.91876 287.59106 438.91876Q286.9192 438.91876 286.40356 439.54376Q285.88794 440.16876 285.88794 441.3719Z" fill-rule="nonzero"/><path fill="#000000" d="M333.28394 444.45L333.28394 435.85626L336.2527 435.85626Q337.2527 435.85626 337.78394 435.98126Q338.5183 436.15314 339.03394 436.59064Q339.72144 437.16876 340.04956 438.075Q340.3933 438.96564 340.3933 440.10626Q340.3933 441.09064 340.15894 441.84064Q339.9402 442.59064 339.5808 443.09064Q339.22144 443.59064 338.78394 443.8719Q338.36206 444.15314 337.7683 444.3094Q337.17456 444.45 336.3933 444.45L333.28394 444.45ZM334.42456 443.4344L336.2527 443.4344Q337.11206 443.4344 337.59644 443.27814Q338.0808 443.1219 338.36206 442.825Q338.7683 442.4344 338.98706 441.7469Q339.22144 441.0594 339.22144 440.09064Q339.22144 438.7469 338.7683 438.02814Q338.3308 437.29376 337.7058 437.04376Q337.23706 436.8719 336.23706 436.8719L334.42456 436.8719L334.42456 443.4344ZM346.40894 442.45L347.5027 442.575Q347.2527 443.52814 346.54956 444.0594Q345.84644 444.59064 344.7683 444.59064Q343.40894 444.59064 342.59644 443.7469Q341.79956 442.90314 341.79956 441.3875Q341.79956 439.825 342.61206 438.96564Q343.42456 438.09064 344.7058 438.09064Q345.9558 438.09064 346.73706 438.9344Q347.53394 439.77814 347.53394 441.325Q347.53394 441.41876 347.53394 441.60626L342.8933 441.60626Q342.9558 442.6375 343.47144 443.1844Q343.98706 443.71564 344.7683 443.71564Q345.34644 443.71564 345.7527 443.41876Q346.17456 443.10626 346.40894 442.45ZM342.9558 440.7469L346.42456 440.7469Q346.36206 439.95 346.03394 439.5594Q345.5183 438.95 344.72144 438.95Q343.98706 438.95 343.48706 439.4344Q343.0027 439.91876 342.9558 440.7469ZM353.40894 442.45L354.5027 442.575Q354.2527 443.52814 353.54956 444.0594Q352.84644 444.59064 351.7683 444.59064Q350.40894 444.59064 349.59644 443.7469Q348.79956 442.90314 348.79956 441.3875Q348.79956 439.825 349.61206 438.96564Q350.42456 438.09064 351.7058 438.09064Q352.9558 438.09064 353.73706 438.9344Q354.53394 439.77814 354.53394 441.325Q354.53394 441.41876 354.53394 441.60626L349.8933 441.60626Q349.9558 442.6375 350.47144 443.1844Q350.98706 443.71564 351.7683 443.71564Q352.34644 443.71564 352.7527 443.41876Q353.17456 443.10626 353.40894 442.45ZM349.9558 440.7469L353.42456 440.7469Q353.36206 439.95 353.03394 439.5594Q352.5183 438.95 351.72144 438.95Q350.98706 438.95 350.48706 439.4344Q350.0027 439.91876 349.9558 440.7469ZM356.15894 446.84064L356.15894 438.23126L357.11206 438.23126L357.11206 439.02814Q357.4558 438.5594 357.8777 438.325Q358.3152 438.09064 358.92456 438.09064Q359.72144 438.09064 360.3308 438.4969Q360.9402 438.90314 361.23706 439.65314Q361.54956 440.40314 361.54956 441.29376Q361.54956 442.2469 361.2058 443.0125Q360.8777 443.77814 360.22144 444.1844Q359.5652 444.59064 358.84644 444.59064Q358.3152 444.59064 357.8933 444.3719Q357.47144 444.1375 357.2058 443.8094L357.2058 446.84064L356.15894 446.84064ZM357.11206 441.3719Q357.11206 442.575 357.59644 443.15314Q358.0808 443.71564 358.7683 443.71564Q359.47144 443.71564 359.97144 443.1219Q360.47144 442.52814 360.47144 441.27814Q360.47144 440.09064 359.98706 439.5125Q359.5027 438.91876 358.8152 438.91876Q358.1433 438.91876 357.6277 439.54376Q357.11206 440.16876 357.11206 441.3719ZM362.73706 441.8719L362.73706 440.8094L365.98706 440.8094L365.98706 441.8719L362.73706 441.8719ZM366.90894 441.6844L367.97144 441.59064Q368.04956 442.2469 368.3308 442.65314Q368.61206 443.0594 369.1902 443.325Q369.78394 443.575 370.5183 443.575Q371.15894 443.575 371.65894 443.3875Q372.15894 443.1844 372.3933 442.85626Q372.6433 442.5125 372.6433 442.1219Q372.6433 441.71564 372.40894 441.41876Q372.17456 441.10626 371.6433 440.90314Q371.28394 440.7625 370.09644 440.48126Q368.92456 440.2 368.4558 439.95Q367.8308 439.6219 367.53394 439.15314Q367.23706 438.66876 367.23706 438.075Q367.23706 437.4344 367.59644 436.8719Q367.97144 436.29376 368.67456 436.0125Q369.3933 435.71564 370.2527 435.71564Q371.2058 435.71564 371.9402 436.02814Q372.67456 436.325 373.0652 436.9344Q373.4558 437.52814 373.48706 438.27814L372.3933 438.35626Q372.29956 437.54376 371.78394 437.1375Q371.28394 436.71564 370.29956 436.71564Q369.2683 436.71564 368.79956 437.09064Q368.3308 437.46564 368.3308 437.9969Q368.3308 438.46564 368.65894 438.7625Q368.98706 439.0594 370.36206 439.3719Q371.7527 439.6844 372.2683 439.91876Q373.0183 440.27814 373.3777 440.8094Q373.73706 441.325 373.73706 442.02814Q373.73706 442.71564 373.34644 443.325Q372.9558 443.91876 372.22144 444.2625Q371.48706 444.59064 370.5652 444.59064Q369.3933 444.59064 368.59644 444.2625Q367.8152 443.91876 367.36206 443.23126Q366.92456 442.54376 366.90894 441.6844ZM375.1277 444.45L375.1277 435.85626L376.1902 435.85626L376.1902 444.45L375.1277 444.45ZM382.40894 442.45L383.5027 442.575Q383.2527 443.52814 382.54956 444.0594Q381.84644 444.59064 380.7683 444.59064Q379.40894 444.59064 378.59644 443.7469Q377.79956 442.90314 377.79956 441.3875Q377.79956 439.825 378.61206 438.96564Q379.42456 438.09064 380.7058 438.09064Q381.9558 438.09064 382.73706 438.9344Q383.53394 439.77814 383.53394 441.325Q383.53394 441.41876 383.53394 441.60626L378.8933 441.60626Q378.9558 442.6375 379.47144 443.1844Q379.98706 443.71564 380.7683 443.71564Q381.34644 443.71564 381.7527 443.41876Q382.17456 443.10626 382.40894 442.45ZM378.9558 440.7469L382.42456 440.7469Q382.36206 439.95 382.03394 439.5594Q381.5183 438.95 380.72144 438.95Q379.98706 438.95 379.48706 439.4344Q379.0027 439.91876 378.9558 440.7469ZM389.40894 442.45L390.5027 442.575Q390.2527 443.52814 389.54956 444.0594Q388.84644 444.59064 387.7683 444.59064Q386.40894 444.59064 385.59644 443.7469Q384.79956 442.90314 384.79956 441.3875Q384.79956 439.825 385.61206 438.96564Q386.42456 438.09064 387.7058 438.09064Q388.9558 438.09064 389.73706 438.9344Q390.53394 439.77814 390.53394 441.325Q390.53394 441.41876 390.53394 441.60626L385.8933 441.60626Q385.9558 442.6375 386.47144 443.1844Q386.98706 443.71564 387.7683 443.71564Q388.34644 443.71564 388.7527 443.41876Q389.17456 443.10626 389.40894 442.45ZM385.9558 440.7469L389.42456 440.7469Q389.36206 439.95 389.03394 439.5594Q388.5183 438.95 387.72144 438.95Q386.98706 438.95 386.48706 439.4344Q386.0027 439.91876 385.9558 440.7469ZM392.15894 446.84064L392.15894 438.23126L393.11206 438.23126L393.11206 439.02814Q393.4558 438.5594 393.8777 438.325Q394.3152 438.09064 394.92456 438.09064Q395.72144 438.09064 396.3308 438.4969Q396.9402 438.90314 397.23706 439.65314Q397.54956 440.40314 397.54956 441.29376Q397.54956 442.2469 397.2058 443.0125Q396.8777 443.77814 396.22144 444.1844Q395.5652 444.59064 394.84644 444.59064Q394.3152 444.59064 393.8933 444.3719Q393.47144 444.1375 393.2058 443.8094L393.2058 446.84064L392.15894 446.84064ZM393.11206 441.3719Q393.11206 442.575 393.59644 443.15314Q394.0808 443.71564 394.7683 443.71564Q395.47144 443.71564 395.97144 443.1219Q396.47144 442.52814 396.47144 441.27814Q396.47144 440.09064 395.98706 439.5125Q395.5027 438.91876 394.8152 438.91876Q394.1433 438.91876 393.6277 439.54376Q393.11206 440.16876 393.11206 441.3719Z" fill-rule="nonzero"/><path fill="#000000" d="M440.05496 444.45L440.05496 435.85626L441.17996 435.85626L441.17996 439.3875L445.6487 439.3875L445.6487 435.85626L446.78934 435.85626L446.78934 444.45L445.6487 444.45L445.6487 440.40314L441.17996 440.40314L441.17996 444.45L440.05496 444.45ZM448.8831 437.075L448.8831 435.85626L449.9456 435.85626L449.9456 437.075L448.8831 437.075ZM448.8831 444.45L448.8831 438.23126L449.9456 438.23126L449.9456 444.45L448.8831 444.45ZM452.85184 444.45L451.86746 444.45L451.86746 435.85626L452.92996 435.85626L452.92996 438.91876Q453.60184 438.09064 454.6331 438.09064Q455.2112 438.09064 455.7112 438.325Q456.22684 438.54376 456.55496 438.96564Q456.8987 439.3875 457.0862 439.98126Q457.2737 440.575 457.2737 441.2469Q457.2737 442.84064 456.47684 443.71564Q455.67996 444.59064 454.5862 444.59064Q453.47684 444.59064 452.85184 443.66876L452.85184 444.45ZM452.8362 441.29376Q452.8362 442.40314 453.1487 442.90314Q453.6487 443.71564 454.49246 443.71564Q455.17996 443.71564 455.67996 443.1219Q456.1956 442.52814 456.1956 441.325Q456.1956 440.10626 455.7112 439.52814Q455.22684 438.95 454.53934 438.95Q453.85184 438.95 453.3362 439.5594Q452.8362 440.15314 452.8362 441.29376ZM463.1331 442.45L464.22684 442.575Q463.97684 443.52814 463.2737 444.0594Q462.5706 444.59064 461.49246 444.59064Q460.1331 444.59064 459.3206 443.7469Q458.5237 442.90314 458.5237 441.3875Q458.5237 439.825 459.3362 438.96564Q460.1487 438.09064 461.42996 438.09064Q462.67996 438.09064 463.4612 438.9344Q464.2581 439.77814 464.2581 441.325Q464.2581 441.41876 464.2581 441.60626L459.61746 441.60626Q459.67996 442.6375 460.1956 443.1844Q460.7112 443.71564 461.49246 443.71564Q462.0706 443.71564 462.47684 443.41876Q462.8987 443.10626 463.1331 442.45ZM459.67996 440.7469L463.1487 440.7469Q463.0862 439.95 462.7581 439.5594Q462.24246 438.95 461.4456 438.95Q460.7112 438.95 460.2112 439.4344Q459.72684 439.91876 459.67996 440.7469ZM465.86746 444.45L465.86746 438.23126L466.8206 438.23126L466.8206 439.16876Q467.17996 438.5125 467.47684 438.3094Q467.78934 438.09064 468.16434 438.09064Q468.6956 438.09064 469.24246 438.41876L468.8831 439.40314Q468.49246 439.16876 468.11746 439.16876Q467.7581 439.16876 467.47684 439.3875Q467.2112 439.59064 467.10184 439.96564Q466.91434 440.52814 466.91434 441.1844L466.91434 444.45L465.86746 444.45ZM469.8831 444.45L469.8831 438.23126L470.8206 438.23126L470.8206 439.10626Q471.5081 438.09064 472.80496 438.09064Q473.36746 438.09064 473.8362 438.29376Q474.3206 438.4969 474.55496 438.825Q474.78934 439.15314 474.8831 439.59064Q474.92996 439.8875 474.92996 440.6219L474.92996 444.45L473.8831 444.45L473.8831 440.66876Q473.8831 440.0125 473.7581 439.7Q473.6331 439.3875 473.3206 439.2Q473.0081 438.9969 472.5862 438.9969Q471.91434 438.9969 471.41434 439.4344Q470.92996 439.85626 470.92996 441.04376L470.92996 444.45L469.8831 444.45ZM480.9456 443.6844Q480.35184 444.1844 479.80496 444.3875Q479.2737 444.59064 478.6487 444.59064Q477.61746 444.59064 477.0706 444.09064Q476.5237 443.59064 476.5237 442.8094Q476.5237 442.35626 476.72684 441.98126Q476.92996 441.59064 477.2737 441.3719Q477.61746 441.1375 478.03934 441.02814Q478.3362 440.9344 478.97684 440.85626Q480.24246 440.71564 480.85184 440.4969Q480.85184 440.27814 480.85184 440.23126Q480.85184 439.575 480.55496 439.3094Q480.1487 438.96564 479.35184 438.96564Q478.61746 438.96564 478.2581 439.23126Q477.8987 439.48126 477.72684 440.1375L476.6956 439.9969Q476.8362 439.34064 477.16434 438.9344Q477.49246 438.52814 478.10184 438.3094Q478.7112 438.09064 479.5081 438.09064Q480.30496 438.09064 480.80496 438.27814Q481.30496 438.46564 481.53934 438.7469Q481.7737 439.02814 481.86746 439.46564Q481.91434 439.73126 481.91434 440.4344L481.91434 441.84064Q481.91434 443.3094 481.97684 443.7Q482.05496 444.09064 482.2581 444.45L481.1487 444.45Q480.99246 444.1219 480.9456 443.6844ZM480.85184 441.325Q480.2737 441.5594 479.1331 441.73126Q478.47684 441.825 478.2112 441.95Q477.9456 442.0594 477.78934 442.27814Q477.6487 442.4969 477.6487 442.77814Q477.6487 443.2 477.9612 443.48126Q478.28934 443.7625 478.8987 443.7625Q479.5081 443.7625 479.97684 443.4969Q480.4612 443.23126 480.67996 442.7625Q480.85184 442.40314 480.85184 441.71564L480.85184 441.325ZM486.17996 443.5125L486.3362 444.4344Q485.8831 444.52814 485.53934 444.52814Q484.9612 444.52814 484.6487 444.35626Q484.3362 444.16876 484.1956 443.8719Q484.0706 443.575 484.0706 442.6219L484.0706 439.04376L483.30496 439.04376L483.30496 438.23126L484.0706 438.23126L484.0706 436.6844L485.11746 436.0594L485.11746 438.23126L486.17996 438.23126L486.17996 439.04376L485.11746 439.04376L485.11746 442.6844Q485.11746 443.1375 485.16434 443.2625Q485.22684 443.3875 485.35184 443.46564Q485.47684 443.54376 485.7112 443.54376Q485.8987 443.54376 486.17996 443.5125ZM486.8831 437.075L486.8831 435.85626L487.9456 435.85626L487.9456 437.075L486.8831 437.075ZM486.8831 444.45L486.8831 438.23126L487.9456 438.23126L487.9456 444.45L486.8831 444.45ZM489.49246 441.34064Q489.49246 439.60626 490.4456 438.77814Q491.24246 438.09064 492.3987 438.09064Q493.67996 438.09064 494.49246 438.9344Q495.3206 439.7625 495.3206 441.2469Q495.3206 442.45 494.9612 443.1375Q494.60184 443.825 493.8987 444.21564Q493.2112 444.59064 492.3987 444.59064Q491.10184 444.59064 490.28934 443.7625Q489.49246 442.91876 489.49246 441.34064ZM490.5706 441.34064Q490.5706 442.52814 491.0862 443.1219Q491.61746 443.71564 492.3987 443.71564Q493.1956 443.71564 493.7112 443.1219Q494.22684 442.52814 494.22684 441.3094Q494.22684 440.15314 493.6956 439.5594Q493.17996 438.96564 492.3987 438.96564Q491.61746 438.96564 491.0862 439.5594Q490.5706 440.1375 490.5706 441.34064ZM496.8831 444.45L496.8831 438.23126L497.8206 438.23126L497.8206 439.10626Q498.5081 438.09064 499.80496 438.09064Q500.36746 438.09064 500.8362 438.29376Q501.3206 438.4969 501.55496 438.825Q501.78934 439.15314 501.8831 439.59064Q501.92996 439.8875 501.92996 440.6219L501.92996 444.45L500.8831 444.45L500.8831 440.66876Q500.8831 440.0125 500.7581 439.7Q500.6331 439.3875 500.3206 439.2Q500.0081 438.9969 499.5862 438.9969Q498.91434 438.9969 498.41434 439.4344Q497.92996 439.85626 497.92996 441.04376L497.92996 444.45L496.8831 444.45Z" fill-rule="nonzero"/><path fill="#4285f4" d="M159.0 65.25C159.0 64.697716 159.44771 64.25 160.0 64.25L170.0 64.25C170.55229 64.25 171.0 64.697716 171.0 65.25L171.0 75.25C171.0 75.802284 170.55229 76.25 170.0 76.25L160.0 76.25C159.44771 76.25 159.0 75.802284 159.0 75.25Z" fill-rule="nonzero"/><path fill="#1a1a1a" d="M179.95312 74.25L179.95312 65.65625L186.15625 65.65625L186.15625 66.671875L181.09375 66.671875L181.09375 69.296875L185.84375 69.296875L185.84375 70.3125L181.09375 70.3125L181.09375 73.234375L186.35938 73.234375L186.35938 74.25L179.95312 74.25ZM187.54688 71.484375L188.60938 71.390625Q188.6875 72.046875 188.96875 72.453125Q189.25 72.859375 189.82812 73.125Q190.42188 73.375 191.15625 73.375Q191.79688 73.375 192.29688 73.1875Q192.79688 72.984375 193.03125 72.65625Q193.28125 72.3125 193.28125 71.921875Q193.28125 71.515625 193.04688 71.21875Q192.8125 70.90625 192.28125 70.703125Q191.92188 70.5625 190.73438 70.28125Q189.5625 70.0 189.09375 69.75Q188.46875 69.421875 188.17188 68.953125Q187.875 68.46875 187.875 67.875Q187.875 67.234375 188.23438 66.671875Q188.60938 66.09375 189.3125 65.8125Q190.03125 65.515625 190.89062 65.515625Q191.84375 65.515625 192.57812 65.828125Q193.3125 66.125 193.70312 66.734375Q194.09375 67.328125 194.125 68.078125L193.03125 68.15625Q192.9375 67.34375 192.42188 66.9375Q191.92188 66.515625 190.9375 66.515625Q189.90625 66.515625 189.4375 66.890625Q188.96875 67.265625 188.96875 67.796875Q188.96875 68.265625 189.29688 68.5625Q189.625 68.859375 191.0 69.171875Q192.39062 69.484375 192.90625 69.71875Q193.65625 70.078125 194.01562 70.609375Q194.375 71.125 194.375 71.828125Q194.375 72.515625 193.98438 73.125Q193.59375 73.71875 192.85938 74.0625Q192.125 74.390625 191.20312 74.390625Q190.03125 74.390625 189.23438 74.0625Q188.45312 73.71875 188.0 73.03125Q187.5625 72.34375 187.54688 71.484375ZM195.92188 74.25L195.92188 65.65625L199.17188 65.65625Q200.01562 65.65625 200.46875 65.734375Q201.10938 65.84375 201.53125 66.140625Q201.96875 66.4375 202.21875 66.96875Q202.48438 67.5 202.48438 68.140625Q202.48438 69.234375 201.78125 70.0Q201.09375 70.75 199.26562 70.75L197.0625 70.75L197.0625 74.25L195.92188 74.25ZM197.0625 69.75L199.28125 69.75Q200.39062 69.75 200.84375 69.34375Q201.3125 68.921875 201.3125 68.171875Q201.3125 67.640625 201.03125 67.265625Q200.76562 66.875 200.32812 66.75Q200.03125 66.671875 199.26562 66.671875L197.0625 66.671875L197.0625 69.75ZM203.5 71.984375L204.5625 71.84375Q204.73438 72.734375 205.17188 73.140625Q205.60938 73.53125 206.23438 73.53125Q206.98438 73.53125 207.5 73.015625Q208.01562 72.5 208.01562 71.734375Q208.01562 71.015625 207.53125 70.546875Q207.0625 70.0625 206.32812 70.0625Q206.03125 70.0625 205.57812 70.1875L205.70312 69.25Q205.8125 69.265625 205.875 69.265625Q206.54688 69.265625 207.07812 68.921875Q207.625 68.5625 207.625 67.828125Q207.625 67.25 207.23438 66.875Q206.84375 66.484375 206.21875 66.484375Q205.60938 66.484375 205.1875 66.875Q204.78125 67.265625 204.67188 68.03125L203.60938 67.84375Q203.79688 66.796875 204.48438 66.21875Q205.17188 65.625 206.1875 65.625Q206.89062 65.625 207.48438 65.9375Q208.07812 66.234375 208.39062 66.75Q208.70312 67.265625 208.70312 67.859375Q208.70312 68.40625 208.40625 68.875Q208.10938 69.328125 207.53125 69.59375Q208.28125 69.765625 208.70312 70.328125Q209.125 70.875 209.125 71.71875Q209.125 72.84375 208.29688 73.625Q207.48438 74.40625 206.23438 74.40625Q205.10938 74.40625 204.35938 73.734375Q203.60938 73.046875 203.5 71.984375ZM216.04688 73.234375L216.04688 74.25L210.35938 74.25Q210.35938 73.875 210.48438 73.515625Q210.70312 72.9375 211.17188 72.375Q211.65625 71.8125 212.5625 71.078125Q213.96875 69.921875 214.45312 69.25Q214.95312 68.578125 214.95312 67.984375Q214.95312 67.359375 214.5 66.9375Q214.04688 66.5 213.32812 66.5Q212.5625 66.5 212.10938 66.953125Q211.65625 67.40625 211.64062 68.21875L210.5625 68.109375Q210.67188 66.890625 211.39062 66.265625Q212.125 65.625 213.35938 65.625Q214.59375 65.625 215.3125 66.3125Q216.03125 67.0 216.03125 68.015625Q216.03125 68.53125 215.8125 69.03125Q215.60938 69.515625 215.10938 70.078125Q214.625 70.625 213.5 71.578125Q212.54688 72.375 212.26562 72.671875Q212.0 72.953125 211.82812 73.234375L216.04688 73.234375ZM219.96875 71.5625L219.96875 70.71875L226.65625 70.71875L226.65625 71.5625L219.96875 71.5625ZM230.92188 74.25L230.92188 65.65625L233.89062 65.65625Q234.89062 65.65625 235.42188 65.78125Q236.15625 65.953125 236.67188 66.390625Q237.35938 66.96875 237.6875 67.875Q238.03125 68.765625 238.03125 69.90625Q238.03125 70.890625 237.79688 71.640625Q237.57812 72.390625 237.21875 72.890625Q236.85938 73.390625 236.42188 73.671875Q236.0 73.953125 235.40625 74.109375Q234.8125 74.25 234.03125 74.25L230.92188 74.25ZM232.0625 73.234375L233.89062 73.234375Q234.75 73.234375 235.23438 73.078125Q235.71875 72.921875 236.0 72.625Q236.40625 72.234375 236.625 71.546875Q236.85938 70.859375 236.85938 69.890625Q236.85938 68.546875 236.40625 67.828125Q235.96875 67.09375 235.34375 66.84375Q234.875 66.671875 233.875 66.671875L232.0625 66.671875L232.0625 73.234375ZM244.04688 72.25L245.14062 72.375Q244.89062 73.328125 244.1875 73.859375Q243.48438 74.390625 242.40625 74.390625Q241.04688 74.390625 240.23438 73.546875Q239.4375 72.703125 239.4375 71.1875Q239.4375 69.625 240.25 68.765625Q241.0625 67.890625 242.34375 67.890625Q243.59375 67.890625 244.375 68.734375Q245.17188 69.578125 245.17188 71.125Q245.17188 71.21875 245.17188 71.40625L240.53125 71.40625Q240.59375 72.4375 241.10938 72.984375Q241.625 73.515625 242.40625 73.515625Q242.98438 73.515625 243.39062 73.21875Q243.8125 72.90625 244.04688 72.25ZM240.59375 70.546875L244.0625 70.546875Q244.0 69.75 243.67188 69.359375Q243.15625 68.75 242.35938 68.75Q241.625 68.75 241.125 69.234375Q240.64062 69.71875 240.59375 70.546875ZM248.51562 74.25L246.15625 68.03125L247.26562 68.03125L248.60938 71.75Q248.8125 72.359375 249.0 73.0Q249.14062 72.515625 249.39062 71.828125L250.78125 68.03125L251.85938 68.03125L249.5 74.25L248.51562 74.25ZM251.875 74.25L251.875 65.65625L253.01562 65.65625L253.01562 69.921875L257.28125 65.65625L258.82812 65.65625L255.21875 69.140625L258.98438 74.25L257.48438 74.25L254.42188 69.90625L253.01562 71.265625L253.01562 74.25L251.875 74.25ZM259.79688 66.875L259.79688 65.65625L260.85938 65.65625L260.85938 66.875L259.79688 66.875ZM259.79688 74.25L259.79688 68.03125L260.85938 68.03125L260.85938 74.25L259.79688 74.25ZM265.09375 73.3125L265.25 74.234375Q264.79688 74.328125 264.45312 74.328125Q263.875 74.328125 263.5625 74.15625Q263.25 73.96875 263.10938 73.671875Q262.98438 73.375 262.98438 72.421875L262.98438 68.84375L262.21875 68.84375L262.21875 68.03125L262.98438 68.03125L262.98438 66.484375L264.03125 65.859375L264.03125 68.03125L265.09375 68.03125L265.09375 68.84375L264.03125 68.84375L264.03125 72.484375Q264.03125 72.9375 264.07812 73.0625Q264.14062 73.1875 264.26562 73.265625Q264.39062 73.34375 264.625 73.34375Q264.8125 73.34375 265.09375 73.3125ZM272.0625 71.234375L273.1875 71.53125Q272.82812 72.921875 271.90625 73.65625Q270.98438 74.390625 269.64062 74.390625Q268.25 74.390625 267.375 73.828125Q266.5 73.265625 266.04688 72.203125Q265.59375 71.125 265.59375 69.890625Q265.59375 68.546875 266.10938 67.546875Q266.625 66.546875 267.5625 66.03125Q268.51562 65.515625 269.65625 65.515625Q270.9375 65.515625 271.8125 66.171875Q272.70312 66.828125 273.04688 68.015625L271.92188 68.28125Q271.625 67.34375 271.04688 66.921875Q270.48438 66.484375 269.625 66.484375Q268.64062 66.484375 267.96875 66.96875Q267.3125 67.4375 267.03125 68.234375Q266.76562 69.03125 266.76562 69.890625Q266.76562 70.984375 267.07812 71.796875Q267.40625 72.609375 268.07812 73.015625Q268.75 73.421875 269.54688 73.421875Q270.5 73.421875 271.15625 72.875Q271.82812 72.328125 272.0625 71.234375Z" fill-rule="nonzero"/><path fill="#ea4335" d="M290.0 65.25C290.0 64.697716 290.44772 64.25 291.0 64.25L301.0 64.25C301.55228 64.25 302.0 64.697716 302.0 65.25L302.0 75.25C302.0 75.802284 301.55228 76.25 301.0 76.25L291.0 76.25C290.44772 76.25 290.0 75.802284 290.0 75.25Z" fill-rule="nonzero"/><path fill="#1a1a1a" d="M310.98438 74.25L310.98438 65.65625L316.78125 65.65625L316.78125 66.671875L312.125 66.671875L312.125 69.328125L316.15625 69.328125L316.15625 70.34375L312.125 70.34375L312.125 74.25L310.98438 74.25ZM317.79688 66.875L317.79688 65.65625L318.85938 65.65625L318.85938 66.875L317.79688 66.875ZM317.79688 74.25L317.79688 68.03125L318.85938 68.03125L318.85938 74.25L317.79688 74.25ZM320.78125 74.25L320.78125 68.03125L321.73438 68.03125L321.73438 68.96875Q322.09375 68.3125 322.39062 68.109375Q322.70312 67.890625 323.07812 67.890625Q323.60938 67.890625 324.15625 68.21875L323.79688 69.203125Q323.40625 68.96875 323.03125 68.96875Q322.67188 68.96875 322.39062 69.1875Q322.125 69.390625 322.01562 69.765625Q321.82812 70.328125 321.82812 70.984375L321.82812 74.25L320.78125 74.25ZM329.04688 72.25L330.14062 72.375Q329.89062 73.328125 329.1875 73.859375Q328.48438 74.390625 327.40625 74.390625Q326.04688 74.390625 325.23438 73.546875Q324.4375 72.703125 324.4375 71.1875Q324.4375 69.625 325.25 68.765625Q326.0625 67.890625 327.34375 67.890625Q328.59375 67.890625 329.375 68.734375Q330.17188 69.578125 330.17188 71.125Q330.17188 71.21875 330.17188 71.40625L325.53125 71.40625Q325.59375 72.4375 326.10938 72.984375Q326.625 73.515625 327.40625 73.515625Q327.98438 73.515625 328.39062 73.21875Q328.8125 72.90625 329.04688 72.25ZM325.59375 70.546875L329.0625 70.546875Q329.0 69.75 328.67188 69.359375Q328.15625 68.75 327.35938 68.75Q326.625 68.75 326.125 69.234375Q325.64062 69.71875 325.59375 70.546875ZM331.875 74.25L331.875 65.65625L335.10938 65.65625Q336.09375 65.65625 336.6875 65.921875Q337.28125 66.1875 337.60938 66.734375Q337.95312 67.265625 337.95312 67.859375Q337.95312 68.40625 337.65625 68.890625Q337.35938 69.375 336.75 69.671875Q337.53125 69.90625 337.9375 70.46875Q338.35938 71.015625 338.35938 71.765625Q338.35938 72.359375 338.10938 72.890625Q337.85938 73.40625 337.48438 73.6875Q337.10938 73.96875 336.53125 74.109375Q335.96875 74.25 335.15625 74.25L331.875 74.25ZM333.01562 69.265625L334.875 69.265625Q335.625 69.265625 335.95312 69.171875Q336.39062 69.046875 336.60938 68.75Q336.82812 68.4375 336.82812 67.984375Q336.82812 67.5625 336.625 67.234375Q336.42188 66.90625 336.03125 66.796875Q335.65625 66.671875 334.73438 66.671875L333.01562 66.671875L333.01562 69.265625ZM333.01562 73.234375L335.15625 73.234375Q335.70312 73.234375 335.92188 73.1875Q336.32812 73.125 336.57812 72.96875Q336.84375 72.796875 337.01562 72.484375Q337.1875 72.171875 337.1875 71.765625Q337.1875 71.28125 336.9375 70.921875Q336.70312 70.5625 336.26562 70.421875Q335.82812 70.28125 335.0 70.28125L333.01562 70.28125L333.01562 73.234375ZM344.04688 72.25L345.14062 72.375Q344.89062 73.328125 344.1875 73.859375Q343.48438 74.390625 342.40625 74.390625Q341.04688 74.390625 340.23438 73.546875Q339.4375 72.703125 339.4375 71.1875Q339.4375 69.625 340.25 68.765625Q341.0625 67.890625 342.34375 67.890625Q343.59375 67.890625 344.375 68.734375Q345.17188 69.578125 345.17188 71.125Q345.17188 71.21875 345.17188 71.40625L340.53125 71.40625Q340.59375 72.4375 341.10938 72.984375Q341.625 73.515625 342.40625 73.515625Q342.98438 73.515625 343.39062 73.21875Q343.8125 72.90625 344.04688 72.25ZM340.59375 70.546875L344.0625 70.546875Q344.0 69.75 343.67188 69.359375Q343.15625 68.75 342.35938 68.75Q341.625 68.75 341.125 69.234375Q340.64062 69.71875 340.59375 70.546875ZM351.04688 72.25L352.14062 72.375Q351.89062 73.328125 351.1875 73.859375Q350.48438 74.390625 349.40625 74.390625Q348.04688 74.390625 347.23438 73.546875Q346.4375 72.703125 346.4375 71.1875Q346.4375 69.625 347.25 68.765625Q348.0625 67.890625 349.34375 67.890625Q350.59375 67.890625 351.375 68.734375Q352.17188 69.578125 352.17188 71.125Q352.17188 71.21875 352.17188 71.40625L347.53125 71.40625Q347.59375 72.4375 348.10938 72.984375Q348.625 73.515625 349.40625 73.515625Q349.98438 73.515625 350.39062 73.21875Q350.8125 72.90625 351.04688 72.25ZM347.59375 70.546875L351.0625 70.546875Q351.0 69.75 350.67188 69.359375Q350.15625 68.75 349.35938 68.75Q348.625 68.75 348.125 69.234375Q347.64062 69.71875 347.59375 70.546875ZM356.09375 73.3125L356.25 74.234375Q355.79688 74.328125 355.45312 74.328125Q354.875 74.328125 354.5625 74.15625Q354.25 73.96875 354.10938 73.671875Q353.98438 73.375 353.98438 72.421875L353.98438 68.84375L353.21875 68.84375L353.21875 68.03125L353.98438 68.03125L353.98438 66.484375L355.03125 65.859375L355.03125 68.03125L356.09375 68.03125L356.09375 68.84375L355.03125 68.84375L355.03125 72.484375Q355.03125 72.9375 355.07812 73.0625Q355.14062 73.1875 355.26562 73.265625Q355.39062 73.34375 355.625 73.34375Q355.8125 73.34375 356.09375 73.3125ZM356.76562 74.25L356.76562 65.65625L357.82812 65.65625L357.82812 74.25L356.76562 74.25ZM364.04688 72.25L365.14062 72.375Q364.89062 73.328125 364.1875 73.859375Q363.48438 74.390625 362.40625 74.390625Q361.04688 74.390625 360.23438 73.546875Q359.4375 72.703125 359.4375 71.1875Q359.4375 69.625 360.25 68.765625Q361.0625 67.890625 362.34375 67.890625Q363.59375 67.890625 364.375 68.734375Q365.17188 69.578125 365.17188 71.125Q365.17188 71.21875 365.17188 71.40625L360.53125 71.40625Q360.59375 72.4375 361.10938 72.984375Q361.625 73.515625 362.40625 73.515625Q362.98438 73.515625 363.39062 73.21875Q363.8125 72.90625 364.04688 72.25ZM360.59375 70.546875L364.0625 70.546875Q364.0 69.75 363.67188 69.359375Q363.15625 68.75 362.35938 68.75Q361.625 68.75 361.125 69.234375Q360.64062 69.71875 360.59375 70.546875ZM369.95312 74.25L369.95312 65.65625L376.15625 65.65625L376.15625 66.671875L371.09375 66.671875L371.09375 69.296875L375.84375 69.296875L375.84375 70.3125L371.09375 70.3125L371.09375 73.234375L376.35938 73.234375L376.35938 74.25L369.95312 74.25ZM377.54688 71.484375L378.60938 71.390625Q378.6875 72.046875 378.96875 72.453125Q379.25 72.859375 379.82812 73.125Q380.42188 73.375 381.15625 73.375Q381.79688 73.375 382.29688 73.1875Q382.79688 72.984375 383.03125 72.65625Q383.28125 72.3125 383.28125 71.921875Q383.28125 71.515625 383.04688 71.21875Q382.8125 70.90625 382.28125 70.703125Q381.92188 70.5625 380.73438 70.28125Q379.5625 70.0 379.09375 69.75Q378.46875 69.421875 378.17188 68.953125Q377.875 68.46875 377.875 67.875Q377.875 67.234375 378.23438 66.671875Q378.60938 66.09375 379.3125 65.8125Q380.03125 65.515625 380.89062 65.515625Q381.84375 65.515625 382.57812 65.828125Q383.3125 66.125 383.70312 66.734375Q384.09375 67.328125 384.125 68.078125L383.03125 68.15625Q382.9375 67.34375 382.42188 66.9375Q381.92188 66.515625 380.9375 66.515625Q379.90625 66.515625 379.4375 66.890625Q378.96875 67.265625 378.96875 67.796875Q378.96875 68.265625 379.29688 68.5625Q379.625 68.859375 381.0 69.171875Q382.39062 69.484375 382.90625 69.71875Q383.65625 70.078125 384.01562 70.609375Q384.375 71.125 384.375 71.828125Q384.375 72.515625 383.98438 73.125Q383.59375 73.71875 382.85938 74.0625Q382.125 74.390625 381.20312 74.390625Q380.03125 74.390625 379.23438 74.0625Q378.45312 73.71875 378.0 73.03125Q377.5625 72.34375 377.54688 71.484375ZM385.92188 74.25L385.92188 65.65625L389.17188 65.65625Q390.01562 65.65625 390.46875 65.734375Q391.10938 65.84375 391.53125 66.140625Q391.96875 66.4375 392.21875 66.96875Q392.48438 67.5 392.48438 68.140625Q392.48438 69.234375 391.78125 70.0Q391.09375 70.75 389.26562 70.75L387.0625 70.75L387.0625 74.25L385.92188 74.25ZM387.0625 69.75L389.28125 69.75Q390.39062 69.75 390.84375 69.34375Q391.3125 68.921875 391.3125 68.171875Q391.3125 67.640625 391.03125 67.265625Q390.76562 66.875 390.32812 66.75Q390.03125 66.671875 389.26562 66.671875L387.0625 66.671875L387.0625 69.75ZM393.5 71.984375L394.5625 71.84375Q394.73438 72.734375 395.17188 73.140625Q395.60938 73.53125 396.23438 73.53125Q396.98438 73.53125 397.5 73.015625Q398.01562 72.5 398.01562 71.734375Q398.01562 71.015625 397.53125 70.546875Q397.0625 70.0625 396.32812 70.0625Q396.03125 70.0625 395.57812 70.1875L395.70312 69.25Q395.8125 69.265625 395.875 69.265625Q396.54688 69.265625 397.07812 68.921875Q397.625 68.5625 397.625 67.828125Q397.625 67.25 397.23438 66.875Q396.84375 66.484375 396.21875 66.484375Q395.60938 66.484375 395.1875 66.875Q394.78125 67.265625 394.67188 68.03125L393.60938 67.84375Q393.79688 66.796875 394.48438 66.21875Q395.17188 65.625 396.1875 65.625Q396.89062 65.625 397.48438 65.9375Q398.07812 66.234375 398.39062 66.75Q398.70312 67.265625 398.70312 67.859375Q398.70312 68.40625 398.40625 68.875Q398.10938 69.328125 397.53125 69.59375Q398.28125 69.765625 398.70312 70.328125Q399.125 70.875 399.125 71.71875Q399.125 72.84375 398.29688 73.625Q397.48438 74.40625 396.23438 74.40625Q395.10938 74.40625 394.35938 73.734375Q393.60938 73.046875 393.5 71.984375ZM406.04688 73.234375L406.04688 74.25L400.35938 74.25Q400.35938 73.875 400.48438 73.515625Q400.70312 72.9375 401.17188 72.375Q401.65625 71.8125 402.5625 71.078125Q403.96875 69.921875 404.45312 69.25Q404.95312 68.578125 404.95312 67.984375Q404.95312 67.359375 404.5 66.9375Q404.04688 66.5 403.32812 66.5Q402.5625 66.5 402.10938 66.953125Q401.65625 67.40625 401.64062 68.21875L400.5625 68.109375Q400.67188 66.890625 401.39062 66.265625Q402.125 65.625 403.35938 65.625Q404.59375 65.625 405.3125 66.3125Q406.03125 67.0 406.03125 68.015625Q406.03125 68.53125 405.8125 69.03125Q405.60938 69.515625 405.10938 70.078125Q404.625 70.625 403.5 71.578125Q402.54688 72.375 402.26562 72.671875Q402.0 72.953125 401.82812 73.234375L406.04688 73.234375Z" fill-rule="nonzero"/><path fill="#757575" d="M24.45625 37.95625L26.2375 37.8Q26.3625 38.8625 26.815624 39.55Q27.284374 40.2375 28.253124 40.675Q29.2375 41.096874 30.471874 41.096874Q31.55 41.096874 32.378124 40.784374Q33.20625 40.45625 33.6125 39.89375Q34.01875 39.33125 34.01875 38.659374Q34.01875 37.9875 33.628124 37.4875Q33.2375 36.9875 32.346874 36.64375Q31.76875 36.409374 29.784374 35.940624Q27.815624 35.471874 27.034374 35.05Q26.003124 34.51875 25.503124 33.721874Q25.003124 32.925 25.003124 31.940624Q25.003124 30.846874 25.6125 29.909374Q26.221874 28.971874 27.409374 28.4875Q28.596874 27.9875 30.034374 27.9875Q31.628124 27.9875 32.846874 28.503124Q34.065624 29.01875 34.70625 30.01875Q35.3625 31.003124 35.409374 32.26875L33.596874 32.409374Q33.45625 31.05 32.6125 30.3625Q31.76875 29.659374 30.1125 29.659374Q28.39375 29.659374 27.596874 30.3Q26.815624 30.925 26.815624 31.8Q26.815624 32.58125 27.378124 33.08125Q27.925 33.58125 30.2375 34.096874Q32.55 34.6125 33.409374 35.003124Q34.659374 35.58125 35.253124 36.471874Q35.846874 37.346874 35.846874 38.503124Q35.846874 39.64375 35.190624 40.659374Q34.534374 41.675 33.3 42.2375Q32.08125 42.8 30.55 42.8Q28.6125 42.8 27.3 42.2375Q25.9875 41.659374 25.2375 40.51875Q24.4875 39.378124 24.45625 37.95625ZM37.83125 42.55L37.83125 28.2375L39.58125 28.2375L39.58125 42.55L37.83125 42.55ZM48.971874 39.20625L50.784374 39.440624Q50.3625 41.01875 49.190624 41.909374Q48.034374 42.784374 46.221874 42.784374Q43.95625 42.784374 42.6125 41.39375Q41.284374 39.9875 41.284374 37.45625Q41.284374 34.83125 42.628124 33.39375Q43.971874 31.940624 46.128124 31.940624Q48.20625 31.940624 49.51875 33.3625Q50.846874 34.76875 50.846874 37.346874Q50.846874 37.503124 50.83125 37.815624L43.096874 37.815624Q43.190624 39.51875 44.065624 40.425Q44.940624 41.33125 46.2375 41.33125Q47.20625 41.33125 47.878124 40.83125Q48.565624 40.315624 48.971874 39.20625ZM43.190624 36.3625L48.9875 36.3625Q48.878124 35.065624 48.33125 34.409374Q47.4875 33.39375 46.14375 33.39375Q44.940624 33.39375 44.1125 34.20625Q43.284374 35.003124 43.190624 36.3625ZM59.971874 39.20625L61.784374 39.440624Q61.3625 41.01875 60.190624 41.909374Q59.034374 42.784374 57.221874 42.784374Q54.95625 42.784374 53.6125 41.39375Q52.284374 39.9875 52.284374 37.45625Q52.284374 34.83125 53.628124 33.39375Q54.971874 31.940624 57.128124 31.940624Q59.20625 31.940624 60.51875 33.3625Q61.846874 34.76875 61.846874 37.346874Q61.846874 37.503124 61.83125 37.815624L54.096874 37.815624Q54.190624 39.51875 55.065624 40.425Q55.940624 41.33125 57.2375 41.33125Q58.20625 41.33125 58.878124 40.83125Q59.565624 40.315624 59.971874 39.20625ZM54.190624 36.3625L59.9875 36.3625Q59.878124 35.065624 59.33125 34.409374Q58.4875 33.39375 57.14375 33.39375Q55.940624 33.39375 55.1125 34.20625Q54.284374 35.003124 54.190624 36.3625ZM63.8625 46.51875L63.8625 32.175L65.47188 32.175L65.47188 33.51875Q66.03438 32.7375 66.7375 32.346874Q67.45625 31.940624 68.47188 31.940624Q69.8 31.940624 70.81563 32.628124Q71.83125 33.315624 72.34688 34.565624Q72.87813 35.8 72.87813 37.284374Q72.87813 38.878124 72.3 40.159374Q71.7375 41.425 70.64375 42.1125Q69.55 42.784374 68.34688 42.784374Q67.47188 42.784374 66.76875 42.409374Q66.08125 42.034374 65.62813 41.471874L65.62813 46.51875L63.8625 46.51875ZM65.45625 37.425Q65.45625 39.425 66.26875 40.378124Q67.08125 41.33125 68.2375 41.33125Q69.40938 41.33125 70.2375 40.346874Q71.08125 39.3625 71.08125 37.26875Q71.08125 35.3 70.25313 34.315624Q69.44063 33.315624 68.31563 33.315624Q67.19063 33.315624 66.31563 34.378124Q65.45625 35.425 65.45625 37.425ZM81.03438 42.55L81.03438 28.2375L83.89375 28.2375L87.26875 38.3625Q87.7375 39.784374 87.95625 40.4875Q88.20625 39.70625 88.72188 38.190624L92.14375 28.2375L94.69063 28.2375L94.69063 42.55L92.87813 42.55L92.87813 30.565624L88.70625 42.55L87.00313 42.55L82.8625 30.3625L82.8625 42.55L81.03438 42.55ZM97.22188 37.3625Q97.22188 34.4875 98.81563 33.096874Q100.15938 31.940624 102.08125 31.940624Q104.22188 31.940624 105.56563 33.346874Q106.925 34.753124 106.925 37.221874Q106.925 39.221874 106.33125 40.378124Q105.7375 41.51875 104.58125 42.159374Q103.44063 42.784374 102.08125 42.784374Q99.89375 42.784374 98.55 41.39375Q97.22188 39.9875 97.22188 37.3625ZM99.01875 37.3625Q99.01875 39.3625 99.87813 40.346874Q100.75313 41.33125 102.08125 41.33125Q103.39375 41.33125 104.25313 40.346874Q105.12813 39.346874 105.12813 37.3Q105.12813 35.378124 104.25313 34.39375Q103.37813 33.39375 102.08125 33.39375Q100.75313 33.39375 99.87813 34.39375Q99.01875 35.378124 99.01875 37.3625ZM115.59688 42.55L115.59688 41.2375Q114.6125 42.784374 112.69063 42.784374Q111.45625 42.784374 110.40938 42.096874Q109.37813 41.409374 108.8 40.190624Q108.2375 38.971874 108.2375 37.378124Q108.2375 35.815624 108.75313 34.55Q109.26875 33.284374 110.3 32.6125Q111.34688 31.940624 112.6125 31.940624Q113.55 31.940624 114.28438 32.346874Q115.01875 32.7375 115.4875 33.3625L115.4875 28.2375L117.22188 28.2375L117.22188 42.55L115.59688 42.55ZM110.03438 37.378124Q110.03438 39.3625 110.87813 40.346874Q111.72188 41.33125 112.8625 41.33125Q114.01875 41.33125 114.81563 40.39375Q115.62813 39.45625 115.62813 37.51875Q115.62813 35.39375 114.8 34.39375Q113.9875 33.39375 112.78438 33.39375Q111.6125 33.39375 110.81563 34.3625Q110.03438 35.315624 110.03438 37.378124ZM126.97188 39.20625L128.78438 39.440624Q128.3625 41.01875 127.19063 41.909374Q126.03438 42.784374 124.22188 42.784374Q121.95625 42.784374 120.6125 41.39375Q119.28438 39.9875 119.28438 37.45625Q119.28438 34.83125 120.62813 33.39375Q121.97188 31.940624 124.12813 31.940624Q126.20625 31.940624 127.51875 33.3625Q128.84688 34.76875 128.84688 37.346874Q128.84688 37.503124 128.83125 37.815624L121.09688 37.815624Q121.19063 39.51875 122.06563 40.425Q122.94063 41.33125 124.2375 41.33125Q125.20625 41.33125 125.87813 40.83125Q126.56563 40.315624 126.97188 39.20625ZM121.19063 36.3625L126.9875 36.3625Q126.87813 35.065624 126.33125 34.409374Q125.4875 33.39375 124.14375 33.39375Q122.94063 33.39375 122.1125 34.20625Q121.28438 35.003124 121.19063 36.3625ZM130.83125 42.55L130.83125 28.2375L132.58125 28.2375L132.58125 42.55L130.83125 42.55ZM151.31563 37.534374L153.20625 38.003124Q152.6125 40.346874 151.06563 41.58125Q149.51875 42.8 147.26875 42.8Q144.95625 42.8 143.50313 41.8625Q142.06563 40.909374 141.3 39.128124Q140.55 37.33125 140.55 35.284374Q140.55 33.05 141.39375 31.39375Q142.25313 29.721874 143.83125 28.8625Q145.40938 27.9875 147.3 27.9875Q149.45625 27.9875 150.90938 29.08125Q152.37813 30.175 152.95625 32.159374L151.09688 32.596874Q150.59688 31.034374 149.64375 30.33125Q148.70625 29.6125 147.26875 29.6125Q145.6125 29.6125 144.50313 30.409374Q143.39375 31.190624 142.94063 32.534374Q142.50313 33.8625 142.50313 35.26875Q142.50313 37.096874 143.03438 38.471874Q143.56563 39.83125 144.69063 40.503124Q145.81563 41.175 147.1125 41.175Q148.70625 41.175 149.81563 40.253124Q150.925 39.33125 151.31563 37.534374ZM161.65938 42.55L161.65938 41.01875Q160.45625 42.784374 158.37813 42.784374Q157.45625 42.784374 156.65938 42.440624Q155.8625 42.08125 155.47188 41.55Q155.09688 41.01875 154.94063 40.2375Q154.83125 39.721874 154.83125 38.596874L154.83125 32.175L156.58125 32.175L156.58125 37.925Q156.58125 39.3 156.69063 39.784374Q156.8625 40.471874 157.39375 40.878124Q157.94063 41.26875 158.72188 41.26875Q159.51875 41.26875 160.20625 40.8625Q160.90938 40.45625 161.19063 39.76875Q161.4875 39.065624 161.4875 37.7375L161.4875 32.175L163.2375 32.175L163.2375 42.55L161.65938 42.55ZM164.84688 42.55L164.84688 32.175L166.425 32.175L166.425 33.753124Q167.03438 32.64375 167.55 32.3Q168.06563 31.940624 168.675 31.940624Q169.56563 31.940624 170.4875 32.503124L169.87813 34.14375Q169.2375 33.753124 168.59688 33.753124Q168.01875 33.753124 167.55 34.1125Q167.09688 34.45625 166.89375 35.065624Q166.6125 36.003124 166.6125 37.1125L166.6125 42.55L164.84688 42.55ZM171.84688 42.55L171.84688 32.175L173.425 32.175L173.425 33.753124Q174.03438 32.64375 174.55 32.3Q175.06563 31.940624 175.675 31.940624Q176.56563 31.940624 177.4875 32.503124L176.87813 34.14375Q176.2375 33.753124 175.59688 33.753124Q175.01875 33.753124 174.55 34.1125Q174.09688 34.45625 173.89375 35.065624Q173.6125 36.003124 173.6125 37.1125L173.6125 42.55L171.84688 42.55ZM185.97188 39.20625L187.78438 39.440624Q187.3625 41.01875 186.19063 41.909374Q185.03438 42.784374 183.22188 42.784374Q180.95625 42.784374 179.6125 41.39375Q178.28438 39.9875 178.28438 37.45625Q178.28438 34.83125 179.62813 33.39375Q180.97188 31.940624 183.12813 31.940624Q185.20625 31.940624 186.51875 33.3625Q187.84688 34.76875 187.84688 37.346874Q187.84688 37.503124 187.83125 37.815624L180.09688 37.815624Q180.19063 39.51875 181.06563 40.425Q181.94063 41.33125 183.2375 41.33125Q184.20625 41.33125 184.87813 40.83125Q185.56563 40.315624 185.97188 39.20625ZM180.19063 36.3625L185.9875 36.3625Q185.87813 35.065624 185.33125 34.409374Q184.4875 33.39375 183.14375 33.39375Q181.94063 33.39375 181.1125 34.20625Q180.28438 35.003124 180.19063 36.3625ZM189.8625 42.55L189.8625 32.175L191.45625 32.175L191.45625 33.659374Q192.59688 31.940624 194.75313 31.940624Q195.69063 31.940624 196.47188 32.284374Q197.26875 32.6125 197.65938 33.159374Q198.05 33.70625 198.20625 34.45625Q198.3 34.95625 198.3 36.175L198.3 42.55L196.53438 42.55L196.53438 36.2375Q196.53438 35.159374 196.33125 34.628124Q196.12813 34.096874 195.59688 33.784374Q195.08125 33.471874 194.37813 33.471874Q193.25313 33.471874 192.44063 34.190624Q191.62813 34.89375 191.62813 36.878124L191.62813 42.55L189.8625 42.55ZM203.70625 40.971874L203.95625 42.534374Q203.22188 42.690624 202.62813 42.690624Q201.675 42.690624 201.14375 42.39375Q200.62813 42.08125 200.40938 41.596874Q200.19063 41.096874 200.19063 39.51875L200.19063 33.55L198.90938 33.55L198.90938 32.175L200.19063 32.175L200.19063 29.6125L201.94063 28.55L201.94063 32.175L203.70625 32.175L203.70625 33.55L201.94063 33.55L201.94063 39.6125Q201.94063 40.3625 202.03438 40.58125Q202.12813 40.784374 202.33125 40.925Q202.55 41.05 202.94063 41.05Q203.22188 41.05 203.70625 40.971874Z" fill-rule="nonzero"/></svg>